<?xml version="1.0" standalone="no"?>
<!DOCTYPE svg PUBLIC "-//W3C//DTD SVG 20010904//EN"
 "http://www.w3.org/TR/2001/REC-SVG-20010904/DTD/svg10.dtd">
<svg version="1.0" xmlns="http://www.w3.org/2000/svg"
 width="260.000000pt" height="260.000000pt" viewBox="0 0 260.000000 260.000000"
 preserveAspectRatio="xMidYMid meet">
<metadata>
Created by potrace 1.11, written by Peter Selinger 2001-2013
</metadata>
<g transform="translate(0.000000,260.000000) scale(0.100000,-0.100000)"
fill="#000000" stroke="none">
<path d="M1130 2386 c-41 -12 -91 -31 -110 -41 -19 -11 -55 -20 -80 -22 -152
-7 -216 -40 -292 -151 -49 -71 -71 -146 -70 -240 0 -67 -5 -95 -24 -138 -13
-30 -26 -66 -29 -81 -3 -16 -7 -39 -10 -53 -6 -29 -7 -168 -1 -220 2 -19 7
-73 11 -120 3 -46 11 -92 16 -101 14 -27 11 -31 -20 -24 -41 9 -67 -8 -82 -52
-14 -41 -16 -130 -4 -190 4 -21 9 -49 11 -63 9 -48 35 -119 49 -130 8 -7 31
-13 50 -13 35 -2 37 -4 64 -72 33 -82 80 -164 121 -206 82 -84 257 -202 358
-239 81 -31 261 -43 382 -27 91 13 305 144 421 259 56 55 103 137 116 198 6
34 27 50 63 50 14 0 40 56 46 97 2 19 6 38 9 42 2 4 7 30 11 57 3 27 8 52 10
56 3 4 5 34 5 66 1 77 -21 116 -62 108 -37 -7 -41 2 -23 60 15 52 17 59 33
144 38 199 27 350 -30 432 -12 16 -19 43 -19 70 0 24 -5 49 -12 56 -7 7 -11
35 -10 70 3 81 -33 147 -138 250 -54 53 -108 86 -190 116 -72 27 -83 30 -131
41 -11 2 -28 7 -37 9 -35 11 -90 17 -207 21 -103 3 -131 0 -195 -19z"/>
</g>
</svg>
